<svg xmlns="http://www.w3.org/2000/svg" viewBox="0 0 880 540" font-family="Inter, Arial, sans-serif" role="img" aria-label="Placeholder screenshot of the College Board test centre search">
	<rect width="880" height="540" fill="#eef1f4"/>
	<rect x="40" y="36" width="800" height="468" rx="12" fill="#ffffff" stroke="#d8dde3"/>

	<!-- browser chrome -->
	<rect x="40" y="36" width="800" height="48" rx="12" fill="#f3f5f7"/>
	<rect x="40" y="60" width="800" height="24" fill="#f3f5f7"/>
	<circle cx="66" cy="60" r="6" fill="#e0655b"/>
	<circle cx="88" cy="60" r="6" fill="#e7b14a"/>
	<circle cx="110" cy="60" r="6" fill="#5fb866"/>
	<rect x="148" y="48" width="540" height="24" rx="12" fill="#ffffff" stroke="#dde2e8"/>
	<text x="168" y="64" font-size="13" fill="#6b7480">https://collegeboard.org · Test Centre Search</text>

	<!-- page header -->
	<rect x="40" y="84" width="800" height="64" fill="#0b3b73"/>
	<text x="72" y="124" font-size="22" font-weight="700" fill="#ffffff">College Board</text>
	<text x="668" y="120" font-size="13" fill="#cdd9ea">SAT Test Centre Search</text>

	<text x="72" y="196" font-size="20" font-weight="700" fill="#1a2b40">Search results — Tashkent, Uzbekistan</text>
	<text x="72" y="222" font-size="13" fill="#6b7480">1 test centre found for the selected administration</text>

	<!-- highlighted matching result -->
	<rect x="72" y="242" width="736" height="104" rx="10" fill="#eef5ee" stroke="#1f7a4d" stroke-width="1.5"/>
	<circle cx="108" cy="294" r="20" fill="#1f7a4d"/>
	<path d="M99 294 l7 7 l13 -15" fill="none" stroke="#ffffff" stroke-width="3.4" stroke-linecap="round" stroke-linejoin="round"/>
	<text x="148" y="284" font-size="17" font-weight="700" fill="#1a2b40">Oriental University</text>
	<text x="148" y="308" font-size="13" fill="#52606d">Amir Temur Avenue, Tashkent, Uzbekistan</text>
	<text x="148" y="330" font-size="13" fill="#52606d">Centre code 64231 · Administration: 8 March 2025</text>
	<text x="704" y="284" font-size="12" font-weight="700" fill="#1f7a4d">ACTIVE</text>

	<!-- other rows (muted) -->
	<rect x="72" y="362" width="736" height="38" rx="8" fill="#f6f7f9"/>
	<rect x="92" y="376" width="240" height="10" rx="5" fill="#dfe3e8"/>
	<rect x="92" y="392" width="360" height="8" rx="4" fill="#e8ebef"/>
	<rect x="72" y="412" width="736" height="38" rx="8" fill="#f6f7f9"/>
	<rect x="92" y="426" width="200" height="10" rx="5" fill="#dfe3e8"/>
	<rect x="92" y="442" width="320" height="8" rx="4" fill="#e8ebef"/>

	<text x="72" y="486" font-size="11" fill="#9aa4ae">Placeholder image — replace with the actual College Board screenshot.</text>
</svg>
